<svg xmlns="http://www.w3.org/2000/svg" xmlns:xlink="http://www.w3.org/1999/xlink" width="1920" zoomAndPan="magnify" viewBox="0 0 1440 809.999993" height="1080" preserveAspectRatio="xMidYMid meet" version="1.0"><defs><g/><clipPath id="1d50be586f"><path d="M 425.035156 385 L 676.285156 385 L 676.285156 637 L 425.035156 637 Z M 425.035156 385 " clip-rule="nonzero"/></clipPath><clipPath id="252d1df6c3"><path d="M 489 364.019531 L 655 364.019531 L 655 574 L 489 574 Z M 489 364.019531 " clip-rule="nonzero"/></clipPath></defs><g fill="#ffffff" fill-opacity="1"><g transform="translate(0.00000622222, 605.794017)"><g><path d="M 148.796875 -201.703125 C 166.921875 -201.703125 183.316406 -197.085938 197.984375 -187.859375 C 212.648438 -178.628906 224.347656 -166.269531 233.078125 -150.78125 C 241.816406 -135.289062 246.1875 -117.988281 246.1875 -98.875 C 246.1875 -79.757812 241.816406 -62.457031 233.078125 -46.96875 C 224.347656 -31.476562 212.648438 -19.117188 197.984375 -9.890625 C 183.316406 -0.660156 166.921875 3.953125 148.796875 3.953125 C 137.597656 3.953125 127.300781 2.054688 117.90625 -1.734375 C 108.507812 -5.523438 100.019531 -10.710938 92.4375 -17.296875 L 92.4375 119.140625 L 29.171875 118.640625 L 29.171875 -197.734375 L 92.4375 -197.25 L 92.4375 -180.4375 C 100.019531 -187.03125 108.507812 -192.222656 117.90625 -196.015625 C 127.300781 -199.804688 137.597656 -201.703125 148.796875 -201.703125 Z M 136.4375 -51.90625 C 149.625 -51.90625 160.75 -56.4375 169.8125 -65.5 C 178.875 -74.5625 183.40625 -85.6875 183.40625 -98.875 C 183.40625 -112.050781 178.875 -123.171875 169.8125 -132.234375 C 160.75 -141.296875 149.625 -145.828125 136.4375 -145.828125 C 123.257812 -145.828125 112.140625 -141.296875 103.078125 -132.234375 C 94.015625 -123.171875 89.484375 -112.050781 89.484375 -98.875 C 89.484375 -85.6875 94.015625 -74.5625 103.078125 -65.5 C 112.140625 -56.4375 123.257812 -51.90625 136.4375 -51.90625 Z M 136.4375 -51.90625 "/></g></g></g><g fill="#ffffff" fill-opacity="1"><g transform="translate(241.737601, 605.794017)"><g><path d="M 147.8125 -201.703125 C 150.78125 -201.703125 153.664062 -201.535156 156.46875 -201.203125 C 159.269531 -200.867188 161.820312 -200.375 164.125 -199.71875 L 164.125 -143.859375 C 161.820312 -144.515625 159.101562 -145.003906 155.96875 -145.328125 C 152.832031 -145.660156 149.453125 -145.828125 145.828125 -145.828125 C 130.335938 -145.828125 117.566406 -141.378906 107.515625 -132.484375 C 97.460938 -123.585938 92.4375 -110.898438 92.4375 -94.421875 L 92.4375 0 L 29.171875 0 L 29.171875 -197.734375 L 92.4375 -197.734375 L 92.4375 -170.546875 C 99.03125 -180.109375 107.023438 -187.691406 116.421875 -193.296875 C 125.816406 -198.898438 136.28125 -201.703125 147.8125 -201.703125 Z M 147.8125 -201.703125 "/></g></g></g><g fill="#ffffff" fill-opacity="1"><g transform="translate(385.115741, 605.794017)"><g/></g></g><g fill="#ffffff" fill-opacity="1"><g transform="translate(483.985785, 605.794017)"><g/></g></g><g fill="#ffffff" fill-opacity="1"><g transform="translate(582.855829, 605.794017)"><g/></g></g><g fill="#ffffff" fill-opacity="1"><g transform="translate(681.736101, 605.794017)"><g><path d="M 61.796875 -230.859375 C 52.566406 -230.859375 44.488281 -234.316406 37.5625 -241.234375 C 30.644531 -248.160156 27.1875 -256.238281 27.1875 -265.46875 C 27.1875 -275.03125 30.644531 -283.1875 37.5625 -289.9375 C 44.488281 -296.695312 52.566406 -300.078125 61.796875 -300.078125 C 71.347656 -300.078125 79.503906 -296.695312 86.265625 -289.9375 C 93.023438 -283.1875 96.40625 -275.03125 96.40625 -265.46875 C 96.40625 -256.238281 93.023438 -248.160156 86.265625 -241.234375 C 79.503906 -234.316406 71.347656 -230.859375 61.796875 -230.859375 Z M 15.8125 118.640625 C 9.226562 118.640625 2.890625 117.976562 -3.203125 116.65625 C -9.304688 115.34375 -13.675781 113.863281 -16.3125 112.21875 L -16.3125 63.28125 L 7.90625 63.28125 C 14.5 63.28125 19.851562 60.890625 23.96875 56.109375 C 28.09375 51.328125 30.15625 44.816406 30.15625 36.578125 L 30.15625 -197.734375 L 92.9375 -197.734375 L 92.9375 44 C 92.9375 57.84375 89.394531 70.445312 82.3125 81.8125 C 75.226562 93.1875 65.832031 102.164062 54.125 108.75 C 42.425781 115.34375 29.65625 118.640625 15.8125 118.640625 Z M 15.8125 118.640625 "/></g></g></g><g fill="#ffffff" fill-opacity="1"><g transform="translate(785.549675, 605.794017)"><g><path d="M 230.375 -99.359375 L 230.375 -88.484375 L 79.09375 -88.484375 C 80.414062 -74.316406 84.863281 -63.195312 92.4375 -55.125 C 100.019531 -47.050781 110.898438 -43.015625 125.078125 -43.015625 C 146.828125 -43.015625 160.664062 -51.414062 166.59375 -68.21875 L 227.40625 -68.21875 C 222.457031 -46.800781 211.164062 -29.414062 193.53125 -16.0625 C 175.90625 -2.71875 153.414062 3.953125 126.0625 3.953125 C 103.976562 3.953125 84.613281 -0.328125 67.96875 -8.890625 C 51.332031 -17.460938 38.398438 -29.492188 29.171875 -44.984375 C 19.941406 -60.472656 15.328125 -78.4375 15.328125 -98.875 C 15.328125 -119.632812 19.941406 -137.757812 29.171875 -153.25 C 38.398438 -168.738281 51.25 -180.765625 67.71875 -189.328125 C 84.195312 -197.898438 102.984375 -202.1875 124.078125 -202.1875 C 145.503906 -202.1875 164.125 -197.898438 179.9375 -189.328125 C 195.757812 -180.765625 208.117188 -168.820312 217.015625 -153.5 C 225.921875 -138.175781 230.375 -120.128906 230.375 -99.359375 Z M 125.078125 -153.75 C 113.867188 -153.75 104.882812 -151.359375 98.125 -146.578125 C 91.375 -141.796875 86.347656 -135.125 83.046875 -126.5625 L 165.109375 -126.5625 C 161.816406 -135.125 156.957031 -141.796875 150.53125 -146.578125 C 144.101562 -151.359375 135.617188 -153.75 125.078125 -153.75 Z M 125.078125 -153.75 "/></g></g></g><g fill="#ffffff" fill-opacity="1"><g transform="translate(1010.973658, 605.794017)"><g><path d="M 125.5625 3.953125 C 103.476562 3.953125 84.195312 -0.492188 67.71875 -9.390625 C 51.25 -18.285156 38.398438 -30.476562 29.171875 -45.96875 C 19.941406 -61.457031 15.328125 -79.09375 15.328125 -98.875 C 15.328125 -118.644531 19.941406 -136.273438 29.171875 -151.765625 C 38.398438 -167.253906 51.25 -179.445312 67.71875 -188.34375 C 84.195312 -197.25 103.476562 -201.703125 125.5625 -201.703125 C 155.226562 -201.703125 179.617188 -193.875 198.734375 -178.21875 C 217.847656 -162.5625 229.546875 -142.375 233.828125 -117.65625 L 168.578125 -117.65625 C 165.273438 -126.226562 159.832031 -132.984375 152.25 -137.921875 C 144.675781 -142.867188 135.78125 -145.503906 125.5625 -145.828125 C 112.050781 -145.503906 100.847656 -140.972656 91.953125 -132.234375 C 83.054688 -123.503906 78.609375 -112.382812 78.609375 -98.875 C 78.609375 -85.6875 83.054688 -74.644531 91.953125 -65.75 C 100.847656 -56.851562 112.050781 -52.238281 125.5625 -51.90625 C 135.78125 -52.238281 144.675781 -54.957031 152.25 -60.0625 C 159.832031 -65.175781 165.273438 -71.847656 168.578125 -80.078125 L 233.828125 -80.078125 C 229.546875 -55.367188 217.847656 -35.1875 198.734375 -19.53125 C 179.617188 -3.875 155.226562 3.953125 125.5625 3.953125 Z M 125.5625 3.953125 "/></g></g></g><g fill="#ffffff" fill-opacity="1"><g transform="translate(1236.397641, 605.794017)"><g><path d="M 148.3125 -148.796875 L 101.34375 -148.796875 L 101.34375 -78.109375 C 101.34375 -69.867188 103.484375 -63.359375 107.765625 -58.578125 C 112.054688 -53.796875 117.492188 -51.40625 124.078125 -51.40625 L 147.8125 -51.40625 L 147.8125 -2.46875 C 145.507812 -0.820312 141.304688 0.65625 135.203125 1.96875 C 129.109375 3.289062 122.765625 3.953125 116.171875 3.953125 C 102.328125 3.953125 89.472656 0.660156 77.609375 -5.921875 C 65.742188 -12.515625 56.269531 -21.5 49.1875 -32.875 C 42.101562 -44.25 38.5625 -56.851562 38.5625 -70.6875 L 38.5625 -148.796875 L 5.4375 -148.796875 L 5.4375 -197.734375 L 38.5625 -197.734375 L 38.5625 -273.875 L 101.34375 -273.875 L 101.34375 -197.734375 L 148.3125 -197.734375 Z M 148.3125 -148.796875 "/></g></g></g><g clip-path="url(#1d50be586f)"><path fill="#ffffff" d="M 676.335938 511.132812 C 676.335938 513.1875 676.285156 515.242188 676.183594 517.296875 C 676.082031 519.351562 675.929688 521.402344 675.730469 523.449219 C 675.527344 525.496094 675.277344 527.535156 674.972656 529.570312 C 674.671875 531.601562 674.320312 533.628906 673.917969 535.644531 C 673.519531 537.664062 673.066406 539.667969 672.570312 541.664062 C 672.070312 543.65625 671.519531 545.640625 670.921875 547.605469 C 670.328125 549.574219 669.683594 551.527344 668.988281 553.460938 C 668.296875 555.398438 667.554688 557.316406 666.769531 559.214844 C 665.984375 561.117188 665.148438 562.996094 664.269531 564.855469 C 663.390625 566.714844 662.46875 568.550781 661.496094 570.363281 C 660.527344 572.175781 659.515625 573.964844 658.457031 575.730469 C 657.402344 577.492188 656.300781 579.230469 655.160156 580.941406 C 654.015625 582.648438 652.832031 584.332031 651.605469 585.980469 C 650.382812 587.632812 649.117188 589.253906 647.8125 590.84375 C 646.507812 592.433594 645.164062 593.988281 643.785156 595.515625 C 642.402344 597.039062 640.984375 598.527344 639.53125 599.980469 C 638.078125 601.433594 636.589844 602.851562 635.066406 604.234375 C 633.542969 605.613281 631.984375 606.957031 630.394531 608.261719 C 628.804688 609.566406 627.183594 610.832031 625.535156 612.054688 C 623.882812 613.28125 622.203125 614.464844 620.492188 615.605469 C 618.78125 616.75 617.042969 617.847656 615.28125 618.90625 C 613.515625 619.964844 611.730469 620.976562 609.914062 621.945312 C 608.101562 622.914062 606.265625 623.839844 604.40625 624.71875 C 602.546875 625.597656 600.667969 626.429688 598.769531 627.21875 C 596.867188 628.003906 594.949219 628.746094 593.015625 629.4375 C 591.078125 630.128906 589.125 630.773438 587.160156 631.371094 C 585.191406 631.96875 583.210938 632.515625 581.214844 633.015625 C 579.21875 633.515625 577.214844 633.96875 575.195312 634.367188 C 573.179688 634.769531 571.15625 635.121094 569.121094 635.421875 C 567.085938 635.722656 565.046875 635.976562 563 636.175781 C 560.953125 636.378906 558.902344 636.53125 556.847656 636.632812 C 554.796875 636.730469 552.738281 636.78125 550.683594 636.78125 C 548.628906 636.78125 546.574219 636.730469 544.519531 636.632812 C 542.464844 636.53125 540.414062 636.378906 538.367188 636.175781 C 536.320312 635.976562 534.28125 635.722656 532.246094 635.421875 C 530.214844 635.121094 528.1875 634.769531 526.171875 634.367188 C 524.152344 633.96875 522.148438 633.515625 520.152344 633.015625 C 518.160156 632.515625 516.175781 631.96875 514.210938 631.371094 C 512.242188 630.773438 510.289062 630.128906 508.355469 629.4375 C 506.417969 628.746094 504.5 628.003906 502.597656 627.21875 C 500.699219 626.429688 498.820312 625.597656 496.960938 624.71875 C 495.101562 623.839844 493.265625 622.914062 491.453125 621.945312 C 489.640625 620.976562 487.851562 619.964844 486.085938 618.90625 C 484.324219 617.847656 482.585938 616.75 480.875 615.605469 C 479.167969 614.464844 477.484375 613.28125 475.835938 612.054688 C 474.183594 610.832031 472.5625 609.566406 470.972656 608.261719 C 469.382812 606.957031 467.824219 605.613281 466.300781 604.234375 C 464.777344 602.851562 463.289062 601.433594 461.835938 599.980469 C 460.382812 598.527344 458.964844 597.039062 457.582031 595.515625 C 456.203125 593.988281 454.859375 592.433594 453.554688 590.84375 C 452.25 589.253906 450.984375 587.632812 449.761719 585.980469 C 448.535156 584.332031 447.351562 582.648438 446.210938 580.941406 C 445.066406 579.230469 443.96875 577.492188 442.910156 575.730469 C 441.851562 573.964844 440.839844 572.175781 439.871094 570.363281 C 438.902344 568.550781 437.976562 566.714844 437.097656 564.855469 C 436.21875 562.996094 435.386719 561.117188 434.597656 559.214844 C 433.8125 557.316406 433.070312 555.398438 432.378906 553.460938 C 431.6875 551.527344 431.039062 549.574219 430.445312 547.605469 C 429.847656 545.640625 429.296875 543.65625 428.800781 541.664062 C 428.300781 539.667969 427.847656 537.664062 427.449219 535.644531 C 427.046875 533.628906 426.695312 531.601562 426.394531 529.570312 C 426.089844 527.535156 425.839844 525.496094 425.636719 523.449219 C 425.4375 521.402344 425.285156 519.351562 425.183594 517.296875 C 425.085938 515.242188 425.035156 513.1875 425.035156 511.132812 C 425.035156 509.074219 425.085938 507.019531 425.183594 504.964844 C 425.285156 502.914062 425.4375 500.863281 425.636719 498.816406 C 425.839844 496.769531 426.089844 494.730469 426.394531 492.695312 C 426.695312 490.660156 427.046875 488.636719 427.449219 486.617188 C 427.847656 484.601562 428.300781 482.597656 428.800781 480.601562 C 429.296875 478.605469 429.847656 476.625 430.445312 474.65625 C 431.039062 472.691406 431.6875 470.738281 432.378906 468.800781 C 433.070312 466.867188 433.8125 464.949219 434.597656 463.046875 C 435.386719 461.148438 436.21875 459.269531 437.097656 457.410156 C 437.976562 455.550781 438.902344 453.714844 439.871094 451.902344 C 440.839844 450.085938 441.851562 448.296875 442.910156 446.535156 C 443.96875 444.769531 445.066406 443.035156 446.210938 441.324219 C 447.351562 439.613281 448.535156 437.933594 449.761719 436.28125 C 450.984375 434.628906 452.25 433.011719 453.554688 431.421875 C 454.859375 429.832031 456.203125 428.273438 457.582031 426.75 C 458.964844 425.226562 460.382812 423.738281 461.835938 422.285156 C 463.289062 420.828125 464.777344 419.414062 466.300781 418.03125 C 467.824219 416.652344 469.382812 415.308594 470.972656 414.003906 C 472.5625 412.699219 474.183594 411.433594 475.835938 410.207031 C 477.484375 408.984375 479.167969 407.800781 480.875 406.65625 C 482.585938 405.515625 484.324219 404.414062 486.085938 403.359375 C 487.851562 402.300781 489.640625 401.289062 491.453125 400.320312 C 493.265625 399.347656 495.101562 398.425781 496.960938 397.546875 C 498.820312 396.667969 500.699219 395.832031 502.597656 395.046875 C 504.5 394.257812 506.417969 393.519531 508.355469 392.828125 C 510.289062 392.132812 512.242188 391.488281 514.210938 390.890625 C 516.175781 390.296875 518.160156 389.746094 520.152344 389.246094 C 522.148438 388.746094 524.152344 388.296875 526.171875 387.894531 C 528.1875 387.496094 530.214844 387.144531 532.246094 386.839844 C 534.28125 386.539062 536.320312 386.289062 538.367188 386.085938 C 540.414062 385.886719 542.464844 385.734375 544.519531 385.632812 C 546.574219 385.53125 548.628906 385.480469 550.683594 385.480469 C 552.738281 385.480469 554.796875 385.53125 556.847656 385.632812 C 558.902344 385.734375 560.953125 385.886719 563 386.085938 C 565.046875 386.289062 567.085938 386.539062 569.121094 386.839844 C 571.15625 387.144531 573.179688 387.496094 575.195312 387.894531 C 577.214844 388.296875 579.21875 388.746094 581.214844 389.246094 C 583.210938 389.746094 585.191406 390.296875 587.160156 390.890625 C 589.125 391.488281 591.078125 392.132812 593.015625 392.828125 C 594.949219 393.519531 596.867188 394.257812 598.769531 395.046875 C 600.667969 395.832031 602.546875 396.667969 604.40625 397.546875 C 606.265625 398.425781 608.101562 399.347656 609.914062 400.320312 C 611.730469 401.289062 613.515625 402.300781 615.28125 403.359375 C 617.042969 404.414062 618.78125 405.515625 620.492188 406.65625 C 622.203125 407.800781 623.882812 408.984375 625.535156 410.207031 C 627.183594 411.433594 628.804688 412.699219 630.394531 414.003906 C 631.984375 415.308594 633.542969 416.652344 635.066406 418.03125 C 636.589844 419.414062 638.078125 420.828125 639.53125 422.285156 C 640.984375 423.738281 642.402344 425.226562 643.785156 426.75 C 645.164062 428.273438 646.507812 429.832031 647.8125 431.421875 C 649.117188 433.011719 650.382812 434.628906 651.605469 436.28125 C 652.832031 437.933594 654.015625 439.613281 655.160156 441.324219 C 656.300781 443.035156 657.402344 444.769531 658.457031 446.535156 C 659.515625 448.296875 660.527344 450.085938 661.496094 451.902344 C 662.46875 453.714844 663.390625 455.550781 664.269531 457.410156 C 665.148438 459.269531 665.984375 461.148438 666.769531 463.046875 C 667.554688 464.949219 668.296875 466.867188 668.988281 468.800781 C 669.683594 470.738281 670.328125 472.691406 670.921875 474.65625 C 671.519531 476.625 672.070312 478.605469 672.570312 480.601562 C 673.066406 482.597656 673.519531 484.601562 673.917969 486.617188 C 674.320312 488.636719 674.671875 490.660156 674.972656 492.695312 C 675.277344 494.730469 675.527344 496.769531 675.730469 498.816406 C 675.929688 500.863281 676.082031 502.914062 676.183594 504.964844 C 676.285156 507.019531 676.335938 509.074219 676.335938 511.132812 Z M 676.335938 511.132812 " fill-opacity="1" fill-rule="nonzero"/></g><g clip-path="url(#252d1df6c3)"><path fill="#1877f2" d="M 653.242188 379.847656 C 652.613281 377.109375 651.351562 374.707031 649.449219 372.640625 C 647.941406 370.304688 645.960938 368.484375 643.503906 367.179688 L 638.441406 365.046875 C 634.6875 364.015625 630.929688 364.015625 627.175781 365.046875 L 622.113281 367.179688 C 618.917969 369.054688 616.382812 371.589844 614.511719 374.785156 C 609.066406 385.671875 603.621094 396.558594 598.179688 407.445312 L 581.921875 439.957031 C 576.476562 450.84375 571.035156 461.730469 565.589844 472.617188 L 549.332031 505.128906 C 549.300781 505.195312 549.269531 505.257812 549.238281 505.324219 C 546.054688 499.886719 542.714844 494.542969 539.214844 489.292969 C 536.070312 484.582031 532.804688 479.957031 529.410156 475.417969 C 528.105469 472.960938 526.289062 470.980469 523.953125 469.472656 C 522.878906 468.570312 521.722656 467.796875 520.480469 467.148438 C 519.238281 466.503906 517.941406 466 516.589844 465.636719 C 515.234375 465.277344 513.859375 465.070312 512.460938 465.011719 C 511.0625 464.953125 509.671875 465.050781 508.292969 465.300781 C 505.441406 465.425781 502.8125 466.261719 500.414062 467.8125 L 496.125 471.125 C 493.484375 473.761719 491.667969 476.878906 490.675781 480.476562 C 490.417969 482.355469 490.164062 484.230469 489.917969 486.109375 C 489.914062 489.9375 490.878906 493.503906 492.816406 496.808594 C 504.773438 512.816406 515.148438 529.796875 523.933594 547.742188 C 526.421875 552.832031 528.777344 557.980469 530.992188 563.195312 C 531.226562 563.589844 531.46875 563.980469 531.726562 564.363281 C 531.984375 564.742188 532.253906 565.117188 532.535156 565.480469 C 532.820312 565.84375 533.113281 566.195312 533.417969 566.542969 C 533.722656 566.886719 534.039062 567.222656 534.363281 567.546875 C 534.691406 567.867188 535.027344 568.183594 535.375 568.484375 C 535.722656 568.785156 536.078125 569.078125 536.445312 569.355469 C 536.8125 569.636719 537.1875 569.902344 537.570312 570.15625 C 537.953125 570.410156 538.34375 570.652344 538.742188 570.882812 C 539.140625 571.109375 539.546875 571.328125 539.960938 571.527344 C 540.375 571.730469 540.792969 571.921875 541.21875 572.09375 C 541.644531 572.269531 542.074219 572.433594 542.511719 572.578125 C 542.949219 572.726562 543.386719 572.859375 543.832031 572.976562 C 544.277344 573.097656 544.726562 573.199219 545.175781 573.289062 C 545.628906 573.378906 546.082031 573.453125 546.539062 573.511719 C 546.996094 573.574219 547.453125 573.617188 547.914062 573.648438 C 548.371094 573.679688 548.832031 573.691406 549.292969 573.691406 C 549.75 573.691406 550.210938 573.679688 550.671875 573.648438 C 551.128906 573.617188 551.585938 573.574219 552.042969 573.511719 C 552.5 573.453125 552.953125 573.378906 553.40625 573.289062 C 553.855469 573.199219 554.304688 573.097656 554.75 572.976562 C 555.195312 572.859375 555.636719 572.726562 556.070312 572.578125 C 556.507812 572.433594 556.9375 572.269531 557.363281 572.09375 C 557.789062 571.921875 558.207031 571.730469 558.621094 571.527344 C 559.035156 571.328125 559.441406 571.109375 559.839844 570.882812 C 560.238281 570.652344 560.628906 570.410156 561.015625 570.15625 C 561.398438 569.902344 561.773438 569.636719 562.136719 569.355469 C 562.503906 569.078125 562.859375 568.785156 563.207031 568.484375 C 563.554688 568.183594 563.890625 567.867188 564.21875 567.546875 C 564.546875 567.222656 564.859375 566.886719 565.167969 566.542969 C 565.472656 566.195312 565.765625 565.84375 566.046875 565.480469 C 566.328125 565.117188 566.597656 564.742188 566.855469 564.363281 C 567.113281 563.980469 567.359375 563.589844 567.589844 563.195312 C 573.035156 552.308594 578.480469 541.421875 583.921875 530.53125 L 600.179688 498.019531 L 616.507812 465.386719 C 621.925781 454.546875 627.34375 443.710938 632.761719 432.875 L 649.09375 400.214844 L 651.109375 396.175781 C 652.660156 393.777344 653.496094 391.152344 653.621094 388.296875 C 654.265625 385.445312 654.140625 382.628906 653.242188 379.847656 Z M 653.242188 379.847656 " fill-opacity="1" fill-rule="nonzero"/></g><g fill="#ffffff" fill-opacity="1"><g transform="translate(0.00000622222, 375.170069)"><g><path d="M 246.75 -187.828125 C 267 -187.828125 282.570312 -181.300781 293.46875 -168.25 C 304.363281 -155.207031 309.8125 -137.945312 309.8125 -116.46875 L 309.8125 0 L 251.359375 0 L 251.359375 -106.796875 C 251.359375 -114.773438 248.820312 -121.601562 243.75 -127.28125 C 238.6875 -132.957031 232.164062 -135.796875 224.1875 -135.796875 C 215.289062 -135.796875 208.691406 -132.648438 204.390625 -126.359375 C 200.097656 -120.066406 197.953125 -113.546875 197.953125 -106.796875 L 197.953125 0 L 139.03125 0 L 139.03125 -106.796875 C 139.03125 -114.773438 136.570312 -121.601562 131.65625 -127.28125 C 126.75 -132.957031 120.304688 -135.796875 112.328125 -135.796875 C 103.421875 -135.796875 96.816406 -132.648438 92.515625 -126.359375 C 88.222656 -120.066406 86.078125 -113.546875 86.078125 -106.796875 L 86.078125 0 L 27.15625 0 L 27.15625 -184.140625 L 86.078125 -184.140625 L 86.078125 -161.578125 C 92.222656 -169.554688 99.515625 -175.925781 107.953125 -180.6875 C 116.390625 -185.445312 125.828125 -187.828125 136.265625 -187.828125 C 147.921875 -187.828125 158.273438 -184.910156 167.328125 -179.078125 C 176.390625 -173.242188 183.53125 -165.414062 188.75 -155.59375 C 194.570312 -165.726562 202.394531 -173.632812 212.21875 -179.3125 C 222.039062 -184.988281 233.550781 -187.828125 246.75 -187.828125 Z M 246.75 -187.828125 "/></g></g></g><g fill="#ffffff" fill-opacity="1"><g transform="translate(314.88568, 375.170069)"><g><path d="M 57.546875 -214.984375 C 48.953125 -214.984375 41.429688 -218.203125 34.984375 -224.640625 C 28.535156 -231.085938 25.3125 -238.609375 25.3125 -247.203125 C 25.3125 -256.109375 28.535156 -263.707031 34.984375 -270 C 41.429688 -276.289062 48.953125 -279.4375 57.546875 -279.4375 C 66.441406 -279.4375 74.035156 -276.289062 80.328125 -270 C 86.617188 -263.707031 89.765625 -256.109375 89.765625 -247.203125 C 89.765625 -238.609375 86.617188 -231.085938 80.328125 -224.640625 C 74.035156 -218.203125 66.441406 -214.984375 57.546875 -214.984375 Z M 28.078125 0 L 28.078125 -184.140625 L 86.546875 -184.140625 L 86.546875 0 Z M 28.078125 0 "/></g></g></g><g fill="#ffffff" fill-opacity="1"><g transform="translate(411.5713, 375.170069)"><g/></g></g><g fill="#ffffff" fill-opacity="1"><g transform="translate(503.642999, 375.170069)"><g/></g></g><g fill="#ffffff" fill-opacity="1"><g transform="translate(595.714697, 375.170069)"><g/></g></g><g fill="#ffffff" fill-opacity="1"><g transform="translate(687.786406, 375.170069)"><g/></g></g><g fill="#ffffff" fill-opacity="1"><g transform="translate(779.858095, 375.170069)"><g/></g></g><g fill="#ffffff" fill-opacity="1"><g transform="translate(871.929784, 375.170069)"><g/></g></g><g fill="#ffffff" fill-opacity="1"><g transform="translate(1056.073161, 375.170069)"><g/></g></g><g fill="#ffffff" fill-opacity="1"><g transform="translate(1148.144889, 375.170069)"><g/></g></g></svg>